/* XPM */
static char *dc9266349e624679b028f5b5ac8b6378[] = {
/* columns rows colors chars-per-pixel */
"64 64 221 2 ",
"   c #375FFE",
".  c #395DFE",
"X  c #395EFE",
"o  c #3A5EFF",
"O  c #3E5CFE",
"+  c #3E5DFE",
"@  c #3E5DFF",
"#  c #1B6AFE",
"$  c #1A6BFE",
"%  c #1B6BFE",
"&  c #1D6AFE",
"*  c #1D6BFE",
"=  c #1C6BFF",
"-  c #1E6BFE",
";  c #1E6BFF",
":  c #1A6CFE",
">  c #1A6CFF",
",  c #2467FE",
"<  c #2567FE",
"1  c #2766FE",
"2  c #2E62FE",
"3  c #2E63FE",
"4  c #2F63FF",
"5  c #2865FE",
"6  c #2866FE",
"7  c #2866FF",
"8  c #2C64FE",
"9  c #2C65FE",
"0  c #2C65FF",
"q  c #2068FE",
"w  c #2168FE",
"e  c #2169FE",
"r  c #2169FF",
"t  c #206AFE",
"y  c #2468FE",
"u  c #2568FF",
"i  c #3260FE",
"p  c #3360FE",
"a  c #3261FE",
"s  c #3361FF",
"d  c #3760FE",
"f  c #3760FF",
"g  c #287BFF",
"h  c #2D7AFF",
"j  c #2E7BFF",
"k  c #297CFF",
"l  c #3077FF",
"z  c #3576FF",
"x  c #3A73FF",
"c  c #3F72FF",
"v  c #3D76FF",
"b  c #337AFF",
"n  c #3878FF",
"m  c #5D4FFE",
"M  c #5E4FFF",
"N  c #4857FE",
"B  c #4B56FE",
"V  c #4F55FE",
"C  c #4C56FE",
"Z  c #4C57FE",
"A  c #4C57FF",
"S  c #425AFE",
"D  c #425BFE",
"F  c #425BFF",
"G  c #4459FE",
"H  c #445AFE",
"J  c #455AFF",
"K  c #4858FE",
"L  c #4858FF",
"P  c #5353FE",
"I  c #5651FE",
"U  c #5752FF",
"Y  c #5055FE",
"T  c #5055FF",
"R  c #5254FE",
"E  c #5354FF",
"W  c #5A50FE",
"Q  c #5A51FF",
"!  c #6F46FE",
"~  c #6F47FE",
"^  c #654BFE",
"/  c #674AFE",
"(  c #614CFE",
")  c #624DFF",
"_  c #654CFF",
"`  c #684BFF",
"'  c #6C49FE",
"]  c #6C49FF",
"[  c #7345FE",
"{  c #7047FF",
"}  c #7346FE",
"|  c #7346FF",
" . c #7744FE",
".. c #7744FF",
"X. c #7A43FE",
"o. c #7B43FF",
"O. c #7E40FE",
"+. c #7E41FF",
"@. c #486EFF",
"#. c #4D6DFF",
"$. c #516BFF",
"%. c #5669FF",
"&. c #596AFF",
"*. c #5C68FF",
"=. c #5E69FF",
"-. c #4370FF",
";. c #4673FF",
":. c #4274FF",
">. c #4C70FF",
",. c #803FFE",
"<. c #853EFE",
"1. c #853EFF",
"2. c #8B3AFE",
"3. c #8F39FE",
"4. c #8C3BFE",
"5. c #8C3BFF",
"6. c #893CFE",
"7. c #893CFF",
"8. c #9337FE",
"9. c #9636FE",
"0. c #9737FE",
"q. c #9737FF",
"w. c #9D32FE",
"e. c #9D33FE",
"r. c #9E33FF",
"t. c #9A34FE",
"y. c #9B34FE",
"u. c #9B35FF",
"i. c #9039FE",
"p. c #9238FE",
"a. c #9338FF",
"s. c #903AFF",
"d. c #AB2CFE",
"f. c #AB2DFE",
"g. c #A92EFE",
"h. c #A92FFE",
"j. c #A92FFF",
"k. c #AC2CFE",
"l. c #AC2DFF",
"z. c #BA26FE",
"x. c #BA27FE",
"c. c #BB26FF",
"v. c #BB27FF",
"b. c #BD25FE",
"n. c #BE25FE",
"m. c #BE26FE",
"M. c #BE26FF",
"N. c #B229FE",
"B. c #B329FE",
"V. c #B02BFE",
"C. c #B22AFE",
"Z. c #B32AFE",
"A. c #B32AFF",
"S. c #B728FE",
"D. c #B629FE",
"F. c #B729FE",
"G. c #B729FF",
"H. c #B02CFE",
"J. c #B02CFF",
"K. c #BF28FF",
"L. c #A132FE",
"P. c #A132FF",
"I. c #A430FE",
"U. c #A530FE",
"Y. c #A530FF",
"T. c #C023FE",
"R. c #C522FE",
"E. c #C124FF",
"W. c #C52DFF",
"Q. c #8140FF",
"!. c #B251FF",
"~. c #C552FF",
"^. c #C77FFF",
"/. c #61B8FF",
"(. c #60B9FF",
"). c #6FBDFF",
"_. c #70BDFF",
"`. c #79B9FF",
"'. c #7BBAFF",
"]. c #75C3FE",
"[. c #77C4FF",
"{. c #A082FF",
"}. c #83B7FF",
"|. c #8EB4FF",
" X c #8FB5FF",
".X c #85B8FF",
"XX c #8BBFFE",
"oX c #8CBFFF",
"OX c #8DBFFF",
"+X c #90B2FF",
"@X c #98B2FF",
"#X c #99B3FF",
"$X c #98BCFF",
"%X c #A2AFFF",
"&X c #ADADFF",
"*X c #AEAFFF",
"=X c #B0A7FF",
"-X c #B8A4FF",
";X c #B6AAFF",
":X c #A4B1FF",
">X c #AEB7FF",
",X c #A0B9FE",
"<X c #A0BAFE",
"1X c #A1BAFF",
"2X c #A3BAFF",
"3X c #B7B4FE",
"4X c #B6B5FE",
"5X c #B7B5FF",
"6X c #B9B5FF",
"7X c #CBA6FF",
"8X c #CDA7FF",
"9X c #C0A8FF",
"0X c #C7AAFF",
"qX c #CCAFFE",
"wX c #C3B2FF",
"eX c #C7B2FF",
"rX c #CCB0FF",
"tX c #CEB0FF",
"yX c #82C1FF",
"uX c #8BC0FF",
"iX c None",
/* pixels */
"iXiXiXiXiXiXiXiXiXiXiXiXiXiXiXiXiXiXiXiXiXiXiXiXiXiXiXiXiXiXiXiXiXiXiXiXiXiXiXiXiXiXiXiXiXiXiXiXiXiXiXiXiXiXiXiXiXiXiXiXiXiXiXiX",
"iXiXiXiXiXiXiXiXiXiXiXiXiXiXiXiXiXiXiXiXiXiXiXiXiXiXiXiXiXiXiXiXiXiXiXiXiXiXiXiXiXiXiXiXiXiXiXiXiXiXiXiXiXiXiXiXiXiXiXiXiXiXiXiX",
"iXiXiXiXiXiXiXiXiXiXiXiXiXiXiXiXiXiXiXiXiXiXiXiXiXiXiXiXiXiXiXiXiXiXiXiXiXiXiXiXiXiXiXiXiXiXiXiXiXiXiXiXiXiXiXiXiXiXiXiXiXiXiXiX",
"iXiXiXiXiXiXiXiXiXiXiXiXiXiXiXiXiXiXiXiXiXiXiXiXiXiXiXiXiXiXiXiXiXiXiXiXiXiXiXiXiXiXiXiXiXiXiXiXiXiXiXiXiXiXiXiXiXiXiXiXiXiXiXiX",
"iXiXiXiXiXiXiXiXiXiXiXiXiXiXiXiXiXiXiXiXiXiXiXiXiXiXiXiXiXiXiXiXiXiXiXiXiXiXiXiXiXiXiXiXiXiXiXiXiXiXiXiXiXiXiXiXiXiXiXiXiXiXiXiX",
"iXiXiXiXiXiXiXiXiXiXiXiXiXiXiXiXiXiXiXiXiXiXiXiXiXiXiXiXiXiXiXiXiXiXiXiXiXiXiXiXiXiXiXiXiXiXiXiXiXiXiXiXiXiXiXiXiXiXiXiXiXiXiXiX",
"iXiXiXiXiXiXiXiXiXiXiXiXiXiXiXiXiXiXiXiXiXiXiXiXiXiXiXiXiXiXiXiXiXiXiXiXiXiXiXiXiXiXiXiXiXt q q q iXiXiXiXiXiXiXiXiXiXiXiXiXiXiX",
"iXiXiXiXiXiXiXiXiXiXiXiXiXiXiXiXiXiXiXiXiXiXiXiXiXiXiXiXiXiXiXiXiXiXiXiXiXiX% % : : iXiX: ; % ; ; : iXiXiXiXiXiXiXiXiXiXiXiXiXiX",
"iXiXiXiXiXiXiXiXiXiXiXiXiXiXiXiXiXiXiXiXiXiXiXiXiXiXiXiXiXiXiXiXiXiXiXiXiX: : : : : : : : g (.(.k : : iXiXiXiXiXiXiXiXiXiXiXiXiX",
"iXiXiXiXiXiXiXiXiXiXiXiXiXiXiXiXiXiXiXiXiXiXiXiXiXiXiXiXiXiXiXiXiXiXiXiX; t ; iXiX; ; ; h ).[.[._.j ; ; iXiXiXiXiXiXiXiXiXiXiXiX",
"iXiXiXiXiXiXiXiXiXiXiXiXiXiXiXiXiXiXiXiXiXiXiXiXiXiXiXiXiXiXiXiXiXiXiXq q q iXiXiXiXq q l `.yXyXyX`.b q q iXiXiXiXiXiXiXiXiXiXiX",
"iXiXiXiXiXiXiXiXiXiXiXiXiXiXiXiXiXiXiXiXiXiXiXiXiXiXiXiXiXiXiXiXiXiX< u < iXiXiXiXiXiXu < z }.OXOXuX.Xn u u iXiXiXiXiXiXiXiXiXiX",
"iXiXiXiXiXiXiXiXiXiXiXiXiXiXiXiXiXiXiXiXiXiXiXiXiXiXiXiXiXiXiXiXiX< 6 < iXiXiXiXiXiXiXiX6 6 x |.$X$X$X Xv 6 6 iXiXiXiXiXiXiXiXiX",
"iXiXiXiXiXiXiXiXiXiXiXiXiXiXiXiXiXiXiXiXiXiXiXiXiXiXiXiXiXiXiXiX0 0 0 iXiXiXiXiXiXiXiXiXiX0 0 c #X2X2X2X#X:.0 0 iXiXiXiXiXiXiXiX",
"iXiXiXiXiXiXiXiXiXiXiXiXiXiXiXiXiXiXiXiXiXiXiXiXiXiXiXiXiXiXiX2 s 2 iXiXiXiXiXiXiXiXiXiXiXiX2 0 -.:X>X>X>X:X;.2 2 iXiXiXiXiXiXiX",
"iXiXiXiXiXiXiXiXiXiXiXiXiXiXiXiXiXiXiXiXiXiXiXiXiXiXiXiXiXiXs s s iXiXiXiXiXiXiXiXiXiXiXiXiXiXd d @.&X6X6X6X*X>.s s iXiXiXiXiXiX",
"iXiXiXiXiXiXiXiXiXiXiXiXiXiXiXiXiXiXiXiXiXiXiXiXiXiXiXiXiXd   d iXiXiXiXiXiXiXiXiXiXiXiXiXiXiXiX  d #.;XwXwXwX=Xf f iXiXiXiXiXiX",
"iXiXiXiXiXiXiXiXiXiXiXiXiXiXiXiXiXiXiXiXiXiXiXiXiXiXiXiXo o o iXiXiXiXiXiXiXiXiXiXiXiXiXiXiXiXiXiXo o $.9XqXtX-Xo o iXiXiXiXiXiX",
"iXiXiXiXiXiXiXiXiXiXiXiXiXiXiXiXiXiXiXiXiXiXiXiXiXiXiX+ + + iXiXiXiXiXiXiXiXiXiXiXiXiXiXiXiXiXiXiXiX+ + %.7X8X&.+ + iXiXiXiXiXiX",
"iXiXiXiXiXiXiXiXiXiXiXiXiXiXiXiXiXiXiXiXiXiXiXiXiXiXD F D iXiXiXiXiXiXiXiXiXiXiXiXiXiXiXiXiXiXiXiXiXiXD D =.=.D D iXiXiXiXiXiXiX",
"iXiXiXiXiXiXiXiXiXiXiXiXiXiXiXiXiXiXiXiXiXiXiXiXiXH H H iXiXiXiXiXiXiXiXiXiXiXiXiXiXiXiXiXiXiXiXiXiXiXiXH H H H iXiXiXiXiXiXiXiX",
"iXiXiXiXiXiXiXiXiXiXiXiXiXiXiXiXiXiXiXiXiXiXiXiXL L B iXiXiXiXiXiXiXiXiXiXiXiXiXiXiXiXiXiXiXiXiXiXiXiXiXiXB L L iXiXiXiXiXiXiXiX",
"iXiXiXiXiXiXiXiXiXiXiXiXiXiXiXiXiXiXiXiXiXiXiXB Z B iXiXiXiXiXiXiXiXiXiXiXiXiXiXiXiXiXiXiXiXiXiXiXiXiXiXiXiXZ Z C iXiXiXiXiXiXiX",
"iXiXiXiXiXiXiXiXiXiXiXiXiXiXiXiXiXiXiXiXiXiXT T T iXiXiXiXiXiXiXiXiXiXiXiXiXiXiXiXiXiXiXiXiXiXiXiXiXiXiXiXiXiXT C iXiXiXiXiXiXiX",
"iXiXiXiXiXiXiXiXiXiXiXiXiXiXiXiXiXiXiXiXiXT U T iXiXiXiXiXiXiXiXiXiXiXiXiXiXiXiXiXiXiXiXiXiXiXiXiXiXiXiXiXiXiXT U iXiXiXiXiXiXiX",
"iXiXiXiXiXiXiXiXiXiXiXiXiXiXiXiXiXiXiXiXU U U iXiXiXiXiXiXiXiXiXiXiXiXiXiXiXiXiXiXiXiXiXiXiXiXiXiXiXiXiXiXiXW U U iXiXiXiXiXiXiX",
"iXiXiXiXiXiXiXiXiXiXiXiXiXiXiXiXiXiXiXW W W iXiXiXiXiXiXiXiXiXiXiXiXiXiXiXiXiXiXiXiXiXiXiXiXiXiXiXiXiXiXiXW W W iXiXiXiXiXiXiXiX",
"iXiXiXiXiXiXiXiXiXiXiXiXiXiXiXiXiXiXM M m iXiXiXiXiXiXiXiXiXiXiXiXiXiXiXiXiXiXiXiXiXiXiXiXiXiXiXiXiXiXiXm m m iXiXiXiXiXiXiXiXiX",
"iXiXiXiXiXiXiXiXiXiXiXiXiXiXiXiXiX( ( ( iXiXiXiXiXiXiXiXiXiXiXiXiXiXiXiXiXiXiXiXiXiXiXiXiX( ( iXiXiXiX( ( ( iXiXiXiXiXiXiXiXiXiX",
"iXiXiXiXiXiXiXiXiXiXiXiXiXiXiXiX/ _ / iXiXiXiXiXiXiXiXiXiXiXiXiXiXiXiXiXiXiXiXiXiXiXiXiXiX/ _ _ iXiX_ _ / iXiXiXiXiXiXiXiXiXiXiX",
"iXiXiXiXiXiXiXiXiXiXiXiXiXiXiX/ _ ` iXiXiXiXiXiXiXiXiXiXiXiXiXiXiXiXiXiXiXiXiX` / iXiXiXiXiX/ ` / / ` ` iXiXiXiXiXiXiXiXiXiXiXiX",
"iXiXiXiXiXiXiXiXiXiXiXiXiXiX' ' ' ' iXiXiXiXiXiXiXiXiXiXiXiXiXiXiXiXiXiXiXiXiX' ' ' iXiXiXiXiX' ' ' ' iXiXiXiXiXiXiXiXiXiXiXiXiX",
"iXiXiXiXiXiXiXiXiXiXiXiXiX' [ ! ' } ! iXiXiXiXiXiXiXiXiXiXiXiXiXiXiXiXiXiXiXiXiX! [ ! iXiXiXiX' [ ! iXiXiXiXiXiXiXiXiXiXiXiXiXiX",
"iXiXiXiXiXiXiXiXiXiXiXiXiX} [ iXiX[ [ [ iXiXiXiXiXiXiXiXiXiXiXiXiXiXiXiXiXiXiXiXiX[ [ [ iXiX[ } [ iXiXiXiXiXiXiXiXiXiXiXiXiXiXiX",
"iXiXiXiXiXiXiXiXiXiXiXiX....iXiXiXiX....o.iXiXiXiXiXiXiXiXiXiXiXiXiXiXiXiXiXiXiXiXiX............iXiXiXiXiXiXiXiXiXiXiXiXiXiXiXiX",
"iXiXiXiXiXiXiXiXiXiXiXiXo.o.iXiXiXiXiXo.o.o.iXiXiXiXiXiXiXiXiXiXiXiXiXiXiXiXiXiXiXiXiXX.o.o.o.iXiXiXiXiXiXiXiXiXiXiXiXiXiXiXiXiX",
"iXiXiXiXiXiXiXiXiXiXiXiX+.+.iXiXiXiXiXiXQ.+.+.iXiXiXiXiXiXiXiXiXiXiXiXiXiX+.+.iXiXiXiX+.+.+.iXiXiXiXiXiXiXiXiXiXiXiXiXiXiXiXiXiX",
"iXiXiXiXiXiXiXiXiXiXiXiXQ.Q.iXiXiXiXiXiXiXQ.,.,.iXiXiXiXiXiXiXiXiXiXiXiXiXQ.Q.,.iXiX,.Q.,.iXiXiXiXiXiXiXiXiXiXiXiXiXiXiXiXiXiXiX",
"iXiXiXiXiXiXiXiXiXiXiXiX<.<.<.iXiXiXiXiXiXiX<.<.Q.iXiXiXiXiXiXiXiXiXiXiXiXiX<.<.<.<.<.<.iXiXiXiXiXiXiXiXiXiXiXiXiXiXiXiXiXiXiXiX",
"iXiXiXiXiXiXiXiXiXiXiX6.6.6.6.<.iXiXiXiXiXiXiX6.6.6.iXiXiXiXiXiXiXiXiXiXiXiXiX6.6.6.6.iXiXiXiXiXiXiXiXiXiXiXiXiXiXiXiXiXiXiXiXiX",
"iXiXiXiXiXiXiXiXiXiXiX6.s.iX2.s.2.iXiXiXiXiXiXiX2.s.2.iXiXiXiXiXiXiXiXiXiXiXiX6.s.6.iXiXiXiXiXiXiXiXiXiXiXiXiXiXiXiXiXiXiXiXiXiX",
"iXiXiXiXiXiXiXiXiXiXiXp.3.iXiXp.3.p.iXiXiXiXiXiXiXp.3.3.iXiXiXiXiXiXiXiXiXiXp.s.3.iXiXiXiXiXiXiXiXiXiXiXiXiXiXiXiXiXiXiXiXiXiXiX",
"iXiXiXiXiXiXiXiXiXiXiXp.p.iXiXiXp.p.p.iXiXiXiXiXiXiXp.p.p.iXiXiXiXiXiXiXiXp.p.p.iXiXiXiXiXiXiXiXiXiXiXiXiXiXiXiXiXiXiXiXiXiXiXiX",
"iXiXiXiXiXiXiXiXiXiX0.q.iXiXiXiXiXq.q.q.iXiXiXiXiXiXiX0.q.q.iXiXiXiXiXiXq.q.y.iXiXiXiXiXiXiXiXiXiXiXiXiXiXiXiXiXiXiXiXiXiXiXiXiX",
"iXiXiXiXiXiXiXiXiXiXy.y.iXiXiXiXiXiXy.r.y.iXiXiXiXiXiXiXy.y.y.iXiXiXiXy.y.y.iXiXiXiXiXiXiXiXiXiXiXiXiXiXiXiXiXiXiXiXiXiXiXiXiXiX",
"iXiXiXiXiXiXiXiXiXiXr.r.iXiXiXiXiXiXiXr.r.r.iXiXiXiXiXiXiXr.r.r.iXiXr.r.r.iXiXiXiXiXiXiXiXiXiXiXiXiXiXiXiXiXiXiXiXiXiXiXiXiXiXiX",
"iXiXiXiXiXiXiXiXiXL.L.iXiXiXiXiXiXiXiXiXL.L.L.iXiXiXiXiXiXiXL.L.L.L.L.L.iXiXiXiXiXiXiXiXiXiXiXiXiXiXiXiXiXiXiXiXiXiXiXiXiXiXiXiX",
"iXiXiXiXiXiXiXiXiXY.Y.iXiX[.iXiXiXiXiXiXiXL.Y.Y.iXiXiXiXiXiXiXL.Y.Y.Y.iXiXiXiXiXiXiXiXiXiXiXiXiXiXiXiXiXiXiXiXiXiXiXiXiXiXiXiXiX",
"iXiXiXiXiXiXiXiXiXf.f.iXiXuXOXiXiXiXiXiXiXiXf.j.f.iXiXiXiXiXiXf.j.f.iXiXiXiXiXiXiXiXiXiXiXiXiXiXiXiXiXiXiXiXiXiXiXiXiXiXiXiXiXiX",
"iXiXiXiXiXiXiXiXf.f.iXiX<X<X<X<XiXiXiXiXiXiXiXl.f.f.iXiXiXiXf.l.l.iXiXiXiXiXiXiXiXiXiXiXiXiXiXiXiXiXiXiXiXiXiXiXiXiXiXiXiXiXiXiX",
"iXiXiXiXiXiXiXiXl.J.iXiX5X5X5X5X6XiXiXiXiXiXiXiXJ.J.J.J.J.J.J.J.iXiXiXiXiXiXiXiXiXiXiXiXiXiXiXiXiXiXiXiXiXiXiXiXiXiXiXiXiXiXiXiX",
"iXiXiXiXiXiXiXiXF.Z.iXiXqXqXqXiXiXiXiXiXiXF.Z.Z.Z.Z.Z.Z.Z.Z.iXiXiXiXiXiXiXiXiXiXiXiXiXiXiXiXiXiXiXiXiXiXiXiXiXiXiXiXiXiXiXiXiXiX",
"iXiXiXiXiXiXiXF.G.iXiXiXiXiXiXiXiXiXG.G.G.G.G.F.F.iXiXiXiXiXiXiXiXiXiXiXiXiXiXiXiXiXiXiXiXiXiXiXiXiXiXiXiXiXiXiXiXiXiXiXiXiXiXiX",
"iXiXiXiXiXiXiXz.v.iXiXiXiXiXiXz.G.v.v.v.v.iXiXiXiXiXiXiXiXiXiXiXiXiXiXiXiXiXiXiXiXiXiXiXiXiXiXiXiXiXiXiXiXiXiXiXiXiXiXiXiXiXiXiX",
"iXiXiXiXiXiXiXv.E.iXiXiXv.E.v.E.v.E.iXiXiXiXiXiXiXiXiXiXiXiXiXiXiXiXiXiXiXiXiXiXiXiXiXiXiXiXiXiXiXiXiXiXiXiXiXiXiXiXiXiXiXiXiXiX",
"iXiXiXiXiXiXiXE.E.E.E.E.E.v.!.{.+XuXuXuXuXuXuXuXuXuXuXuXuXuXuXuXuXuXuXuXuXuXuXuXuXuXuXuXuXuXuXuXuXuXiXiXiXiXiXiXiXiXiXiXiXiXiXiX",
"iXiXiXiXiXiXiXiXR.R.W.~.^.0XeXeXeXeXeXeXeXeXeXeXeXeXeXeXeXeXeXeXeXeXeXeXeXeXeXeXeXeXeXeXeXeXeXeXeXwXiXiXiXiXiXiXiXiXiXiXiXiXiXiX",
"iXiXiXiXiXiXiXiXiXiXiXiXiXiXiXiXiXiXiXiXiXiXiXiXiXiXiXiXiXiXiXiXiXiXiXiXiXiXiXiXiXiXiXiXiXiXiXiXiXiXiXiXiXiXiXiXiXiXiXiXiXiXiXiX",
"iXiXiXiXiXiXiXiXiXiXiXiXiXiXiXiXiXiXiXiXiXiXiXiXiXiXiXiXiXiXiXiXiXiXiXiXiXiXiXiXiXiXiXiXiXiXiXiXiXiXiXiXiXiXiXiXiXiXiXiXiXiXiXiX",
"iXiXiXiXiXiXiXiXiXiXiXiXiXiXiXiXiXiXiXiXiXiXiXiXiXiXiXiXiXiXiXiXiXiXiXiXiXiXiXiXiXiXiXiXiXiXiXiXiXiXiXiXiXiXiXiXiXiXiXiXiXiXiXiX",
"iXiXiXiXiXiXiXiXiXiXiXiXiXiXiXiXiXiXiXiXiXiXiXiXiXiXiXiXiXiXiXiXiXiXiXiXiXiXiXiXiXiXiXiXiXiXiXiXiXiXiXiXiXiXiXiXiXiXiXiXiXiXiXiX",
"iXiXiXiXiXiXiXiXiXiXiXiXiXiXiXiXiXiXiXiXiXiXiXiXiXiXiXiXiXiXiXiXiXiXiXiXiXiXiXiXiXiXiXiXiXiXiXiXiXiXiXiXiXiXiXiXiXiXiXiXiXiXiXiX",
"iXiXiXiXiXiXiXiXiXiXiXiXiXiXiXiXiXiXiXiXiXiXiXiXiXiXiXiXiXiXiXiXiXiXiXiXiXiXiXiXiXiXiXiXiXiXiXiXiXiXiXiXiXiXiXiXiXiXiXiXiXiXiXiX",
"iXiXiXiXiXiXiXiXiXiXiXiXiXiXiXiXiXiXiXiXiXiXiXiXiXiXiXiXiXiXiXiXiXiXiXiXiXiXiXiXiXiXiXiXiXiXiXiXiXiXiXiXiXiXiXiXiXiXiXiXiXiXiXiX"
};
