/* XPM */
static const char *b_Altitude_xpm[] = {
/* width height ncolors chars_per_pixel */
" 24 16 5 1",
/* colors */
". c none",
"4 c #000000",
"0 c #0000FF",
"1 c #FF0000",
"2 c #808080",
/* pixels */
"........................",
"..4....00........1......",
"..4......00.......1.....",
"..42.2.2.2.002.2.212.2..",
"..4..........00....1....",
"..4............0...1....",
"..4............0....1...",
"..42.2.2.2.2.2.0.2.212..",
"..4...........0.....1...",
"..4.........00......1...",
"..4........0........1...",
"..4..2.2.202.2.2.2.212..",
"..4......0..........1...",
"..4.....................",
".444444444444444444444..",
"........................"
};
