/* XPM */
static char *_23cc9fef5be40f5d5e871c27daefd58[] = {
/* columns rows colors chars-per-pixel */
"50 50 149 2 ",
"   c #7F3FFE",
".  c #375FFE",
"X  c #3B5DFE",
"o  c #3B5EFE",
"O  c #3C5DFE",
"+  c #3C5EFE",
"@  c #1E69FE",
"#  c #1F6AFF",
"$  c #2367FE",
"%  c #2765FE",
"&  c #2467FE",
"*  c #2D63FE",
"=  c #2E63FE",
"-  c #2865FE",
";  c #2E64FE",
":  c #2E64FF",
">  c #2368FE",
",  c #2468FE",
"<  c #3261FE",
"1  c #3262FE",
"2  c #3362FE",
"3  c #3262FF",
"4  c #3362FF",
"5  c #3660FE",
"6  c #3760FF",
"7  c #5D4FFE",
"8  c #5E4EFE",
"9  c #5E4FFE",
"0  c #5E4FFF",
"q  c #4B57FE",
"w  c #4B57FF",
"e  c #4F54FE",
"r  c #4659FF",
"t  c #415CFF",
"y  c #5452FE",
"u  c #5552FE",
"i  c #5553FE",
"p  c #5553FF",
"a  c #5054FE",
"s  c #5055FE",
"d  c #5055FF",
"f  c #5950FE",
"g  c #5851FE",
"h  c #5951FE",
"j  c #5951FF",
"k  c #6C47FE",
"l  c #6D47FE",
"z  c #674BFE",
"x  c #624CFE",
"c  c #634CFE",
"v  c #624DFE",
"b  c #634DFF",
"n  c #684AFE",
"m  c #684BFE",
"M  c #684BFF",
"N  c #6D48FE",
"B  c #6D48FF",
"V  c #7643FE",
"C  c #7145FE",
"Z  c #7245FE",
"A  c #7246FE",
"S  c #7246FF",
"D  c #7744FF",
"F  c #7A41FE",
"G  c #7B41FF",
"H  c #7B42FE",
"J  c #7B42FF",
"K  c #7F40FE",
"L  c #803FFE",
"P  c #853DFE",
"I  c #863DFE",
"U  c #853EFE",
"Y  c #853EFF",
"T  c #863EFE",
"R  c #863EFF",
"E  c #893BFE",
"W  c #8A3BFE",
"Q  c #8E39FE",
"!  c #8E3AFE",
"~  c #8F3AFE",
"^  c #8F3AFF",
"/  c #893CFE",
"(  c #8A3CFE",
")  c #8A3CFF",
"_  c #9337FE",
"`  c #9437FE",
"'  c #9C33FE",
"]  c #9835FE",
"[  c #9936FF",
"{  c #9C34FE",
"}  c #9D34FE",
"|  c #9D34FF",
" . c #9338FE",
".. c #9338FF",
"X. c #9438FF",
"o. c #A72EFE",
"O. c #A82FFE",
"+. c #A82FFF",
"@. c #AC2DFF",
"#. c #BB26FE",
"$. c #BA27FE",
"%. c #BB27FF",
"&. c #BE25FE",
"*. c #BF25FF",
"=. c #B12BFF",
"-. c #B528FE",
";. c #B529FE",
":. c #B628FE",
">. c #B629FE",
",. c #A131FE",
"<. c #A231FE",
"1. c #A232FE",
"2. c #A232FF",
"3. c #8040FF",
"4. c #77C4FE",
"5. c #78C3FE",
"6. c #78C4FF",
"7. c #8BBEFE",
"8. c #8BBFFE",
"9. c #8BBFFF",
"0. c #94BCFE",
"q. c #94BDFE",
"w. c #95BDFF",
"e. c #9EBAFE",
"r. c #9EBBFE",
"t. c #9FBBFF",
"y. c #A7B9FE",
"u. c #A8B8FE",
"i. c #A8B9FE",
"p. c #A8B9FF",
"a. c #B1B6FE",
"s. c #B1B7FE",
"d. c #B2B7FF",
"f. c #BBB3FE",
"g. c #BAB4FE",
"h. c #BBB4FE",
"j. c #BBB4FF",
"k. c #CFAFFE",
"l. c #D7AEFE",
"z. c #D8ADFE",
"x. c #D8AEFE",
"c. c #C4B1FE",
"v. c #C5B2FF",
"b. c #CFB0FE",
"n. c #CFB0FF",
"m. c #81C1FE",
"M. c #82C2FE",
"N. c #82C2FF",
"B. c None",
/* pixels */
"B.B.B.B.B.B.B.B.B.B.B.B.B.B.B.B.B.B.B.B.B.B.B.B.B.B.B.B.B.B.B.B.B.B.B.B.B.B.B.B.B.B.B.B.B.B.B.B.B.B.",
"B.B.B.B.B.B.B.B.B.B.B.B.B.B.B.B.B.B.B.B.B.B.B.B.B.B.B.B.B.B.B.B.B.B.B.B.B.B.B.B.B.B.B.B.B.B.B.B.B.B.",
"B.B.B.B.B.B.B.B.B.B.B.B.B.B.B.B.B.B.B.B.B.B.B.B.B.B.B.B.B.B.B.B.B.B.B.B.B.B.B.B.B.B.B.B.B.B.B.B.B.B.",
"B.B.B.B.B.B.B.B.B.B.B.B.B.B.B.B.B.B.B.B.B.B.B.B.B.B.B.B.B.B.B.B.B.B.B.B.B.B.B.B.B.B.B.B.B.B.B.B.B.B.",
"B.B.B.B.B.B.B.B.B.B.B.B.B.B.B.B.B.B.B.B.B.B.B.B.B.B.B.B.B.B.B.B.B.B.B.B.B.B.B.B.B.B.B.B.B.B.B.B.B.B.",
"B.B.B.B.B.B.B.B.B.B.B.B.B.B.B.B.B.B.B.B.B.B.B.B.B.B.B.B.B.B.B.B.B.B.B.B.B.B.B.B.B.B.B.B.B.B.B.B.B.B.",
"B.B.B.B.B.B.B.B.B.B.B.B.B.B.B.B.B.B.B.B.B.B.B.B.B.B.B.B.B.B.B.B.B.B.B.B.B.B.B.B.B.B.B.B.B.B.B.B.B.B.",
"B.B.B.B.B.B.B.B.B.B.B.B.B.B.B.B.B.B.B.B.B.B.B.B.B.B.B.B.B.B.B.B.B.B.B.B.B.B.B.B.B.B.B.B.B.B.B.B.B.B.",
"B.B.B.B.B.B.B.B.B.B.B.B.B.B.B.@ # # # # # # > @ @ > @ B.B.B.B.B.B.B.B.B.B.B.B.B.B.B.B.B.B.B.B.B.B.B.",
"B.B.B.B.B.B.B.B.B.B.B.B.B.B.% > > B.B.B.B.B.B.B.B.B.> > B.B.B.B.B.B.B.B.B.B.B.B.B.B.B.B.B.B.B.B.B.B.",
"B.B.B.B.B.B.B.B.B.B.B.B.B.B.% - B.B.B.B.B.B.B.B.B.B.B.% B.B.B.B.B.B.B.B.B.B.B.B.B.B.B.B.B.B.B.B.B.B.",
"B.B.B.B.B.B.B.B.B.; ; ; B.B.; B.B.B.B.B.B.B.B.B.B.B.B.; ; B.B.B.; ; ; ; * B.B.B.B.B.B.B.B.B.B.B.B.B.",
"B.B.B.B.B.B.B.B.4 4 4 4 4 4 4 B.B.B.B.B.B.B.B.B.B.B.B.4 4 4 B.4 4 4 4 4 4 4 B.B.B.B.B.B.B.B.B.B.B.B.",
"B.B.B.B.B.B.. 6 6 6 6 6 6 6 6 6 6 6 6 6 6 6 6 6 6 6 6 6 6 6 6 6 6 6 6 6 6 6 6 6 6 6 6 6 B.B.B.B.B.B.",
"B.B.B.B.B.o O B.B.B.B.B.B.B.B.B.B.B.B.B.B.B.B.B.B.B.B.B.B.B.B.B.B.B.B.B.B.B.B.B.B.B.B.O O B.B.B.B.B.",
"B.B.B.B.B.t B.B.B.B.B.B.B.B.B.B.B.B.B.B.B.B.B.B.B.B.B.B.B.B.B.B.B.B.B.B.B.B.B.B.B.B.B.B.t B.B.B.B.B.",
"B.B.B.B.B.r B.B.B.B.B.B.B.B.B.B.B.B.B.B.B.B.B.B.B.B.B.B.B.B.B.B.B.B.B.B.B.B.B.B.B.B.B.B.r B.B.B.B.B.",
"B.B.B.B.B.w B.B.B.B.B.B.B.B.B.B.B.B.B.q q q q B.B.B.B.B.B.B.B.B.B.B.B.B.B.B.B.B.B.B.B.B.w B.B.B.B.B.",
"B.B.B.B.B.d B.B.B.B.B.B.B.B.B.B.d d d d d e d d d d B.B.B.B.B.B.B.B.B.B.B.B.B.B.B.B.B.e d B.B.B.B.B.",
"B.B.B.B.B.i B.B.B.B.B.B.B.B.B.i i i B.B.B.B.B.B.B.i i B.B.B.B.B.B.B.B.B.B.B.B.B.i i i i i B.B.B.B.B.",
"B.B.B.B.B.h B.B.B.B.B.B.B.B.h h B.B.B.B.B.B.B.B.B.B.h h h B.B.B.B.B.B.B.B.B.B.h h B.B.B.h B.B.B.B.B.",
"B.B.B.B.B.0 B.B.B.B.B.B.B.0 0 B.B.B.B.B.B.B.B.B.B.B.B.0 0 B.B.B.B.B.B.B.B.B.B.0 B.B.B.B.0 B.B.B.B.B.",
"B.B.B.B.B.x B.B.B.B.B.B.x x B.B.B.B.B.4.6.6.6.5.B.B.B.B.x x B.B.B.B.B.B.B.B.x x B.B.B.B.x B.B.B.B.B.",
"B.B.B.B.B.M B.B.B.B.B.B.M B.B.B.B.M.M.M.M.M.M.M.M.B.B.B.B.M B.B.B.B.B.B.B.B.z M B.B.B.M M B.B.B.B.B.",
"B.B.B.B.B.N B.B.B.B.B.l l B.B.B.q.N.9.9.9.9.9.9.9.9.B.B.B.N M B.B.B.B.B.B.B.S l B.B.N S N B.B.B.B.B.",
"B.B.B.B.B.S B.B.B.B.B.S S B.B.B.0.0.0.0.B.B.0.0.0.0.B.B.B.S A B.B.B.B.B.B.B.A A B.B.B.B.S B.B.B.B.B.",
"B.B.B.B.B.D B.B.B.B.B.F V B.B.B.y.r.r.B.B.B.B.r.y.r.B.B.B.B.D B.B.B.B.B.B.B.V A B.B.B.A D B.B.B.B.B.",
"B.B.B.B.B.J B.B.B.B.B.J F B.B.B.y.y.y.B.B.B.B.u.y.y.y.B.B.B.J B.B.B.B.B.B.B.F F B.B.F J J B.B.B.B.B.",
"B.B.B.B.B.3.B.B.B.B.B.J 3.B.B.B.s.s.s.B.B.B.B.d.d.d.B.B.B.B.3.B.B.B.B.B.B.B.  J B.B.B.B.3.B.B.B.B.B.",
"B.B.B.B.B.R B.B.B.B.B.R R B.B.B.h.h.h.h.B.B.f.h.h.h.B.B.B.R R B.B.B.B.B.B.B.R P B.B.B.B.R B.B.B.B.B.",
"B.B.B.B.B.( B.B.B.B.B.( ( B.B.B.B.v.v.v.v.v.v.v.v.v.B.B.B.R ( B.B.B.B.B.B.B.( ( B.B.W ( ( B.B.B.B.B.",
"B.B.B.B.B...B.B.B.B.B.B.! ! B.B.B.B.b.b.b.b.b.b.b.B.B.B.B...B.B.B.B.B.B.B.B...! B.B.B.B.! B.B.B.B.B.",
"B.B.B.B.B.X.B.B.B.B.B.B.X...B.B.B.B.B.x.x.x.x.B.B.B.B.B.X.X.B.B.B.B.B.B.B.B._ X.B.B.B.B.X.B.B.B.B.B.",
"B.B.B.B.B.[ B.B.B.B.B.B.B.] ] B.B.B.B.B.B.B.B.B.B.B.B.] ] B.B.B.B.B.B.B.B.B.B.] B.B.B.B.] B.B.B.B.B.",
"B.B.B.B.B.| B.B.B.B.B.B.B.B.| | B.B.B.B.B.B.B.B.B.B.| ] B.B.B.B.B.B.B.B.B.B.B.| | | B.B.| B.B.B.B.B.",
"B.B.B.B.B.2.B.B.B.B.B.B.B.B.B.,.,.,.,.B.B.B.B.B.,.1.1.B.B.B.B.B.B.B.B.B.B.B.B.B.B.,.,.,.2.B.B.B.B.B.",
"B.B.B.B.B.+.B.B.B.B.B.B.B.B.B.B.B.O.O.O.+.+.+.+.O.B.B.B.B.B.B.B.B.B.B.B.B.B.B.B.B.B.B.1.+.B.B.B.B.B.",
"B.B.B.B.B.@.B.B.B.B.B.B.B.B.B.B.B.B.B.B.B.B.B.B.B.B.B.B.B.B.B.B.B.B.B.B.B.B.B.B.B.B.B.B.@.B.B.B.B.B.",
"B.B.B.B.B.=.B.B.B.B.B.B.B.B.B.B.B.B.B.B.B.B.B.B.B.B.B.B.B.B.B.B.B.B.B.B.B.B.B.B.B.B.B.B.=.B.B.B.B.B.",
"B.B.B.B.B.>.>.B.B.B.B.B.>.:.>.>.:.:.>.:.>.>.>.>.$.>.>.:.>.>.B.B.B.B.B.B.B.B.B.B.B.B.B.>.$.B.B.B.B.B.",
"B.B.B.B.B.$.$.$.B.B.B.$.$.*.$.$.%.%.%.%.%.%.%.%.%.%.%.$.$.$.*.B.B.B.B.B.B.B.B.B.B.B.*.$.$.B.B.B.B.B.",
"B.B.B.B.B.B.B.*.*.*.*.*.*.*.*.*.*.*.*.*.*.*.*.*.*.*.*.*.*.*.*.*.*.*.*.*.*.*.*.*.*.*.*.B.B.B.B.B.B.B.",
"B.B.B.B.B.B.B.B.B.B.B.B.B.B.B.B.B.B.B.B.B.B.B.B.B.B.B.B.B.B.B.B.B.B.B.B.B.B.B.B.B.B.B.B.B.B.B.B.B.B.",
"B.B.B.B.B.B.B.B.B.B.B.B.B.B.B.B.B.B.B.B.B.B.B.B.B.B.B.B.B.B.B.B.B.B.B.B.B.B.B.B.B.B.B.B.B.B.B.B.B.B.",
"B.B.B.B.B.B.B.B.B.B.B.B.B.B.B.B.B.B.B.B.B.B.B.B.B.B.B.B.B.B.B.B.B.B.B.B.B.B.B.B.B.B.B.B.B.B.B.B.B.B.",
"B.B.B.B.B.B.B.B.B.B.B.B.B.B.B.B.B.B.B.B.B.B.B.B.B.B.B.B.B.B.B.B.B.B.B.B.B.B.B.B.B.B.B.B.B.B.B.B.B.B.",
"B.B.B.B.B.B.B.B.B.B.B.B.B.B.B.B.B.B.B.B.B.B.B.B.B.B.B.B.B.B.B.B.B.B.B.B.B.B.B.B.B.B.B.B.B.B.B.B.B.B.",
"B.B.B.B.B.B.B.B.B.B.B.B.B.B.B.B.B.B.B.B.B.B.B.B.B.B.B.B.B.B.B.B.B.B.B.B.B.B.B.B.B.B.B.B.B.B.B.B.B.B.",
"B.B.B.B.B.B.B.B.B.B.B.B.B.B.B.B.B.B.B.B.B.B.B.B.B.B.B.B.B.B.B.B.B.B.B.B.B.B.B.B.B.B.B.B.B.B.B.B.B.B.",
"B.B.B.B.B.B.B.B.B.B.B.B.B.B.B.B.B.B.B.B.B.B.B.B.B.B.B.B.B.B.B.B.B.B.B.B.B.B.B.B.B.B.B.B.B.B.B.B.B.B."
};
