/* XPM */
static char *a039353a3f094ab0a1337dd5b6e84661[] = {
/* columns rows colors chars-per-pixel */
"50 50 2 1 ",
"  c black",
". c None",
/* pixels */
"..................................................",
"..................................................",
"..................................................",
"..................................................",
"..................................................",
"..................................................",
"........................  ........................",
".......................    .......................",
"......................      ......................",
".....................        .....................",
".....................        .....................",
"....................          ....................",
"...................     ..     ...................",
"...................     ..     ...................",
"..................     ....     ..................",
"..................    ......    ..................",
".................     ......     .................",
"................     ........     ................",
"................     ........     ................",
"...............     ..........     ...............",
"..............     ............     ..............",
"..............     ............     ..............",
".............     ..............     .............",
".............     ..............     .............",
"............     ................     ............",
"...........     ..................     ...........",
"...........     ..................     ...........",
"..........     ....................     ..........",
"..........    ......................    ..........",
".........     ......................     .........",
"........     ........................     ........",
"........     ........................     ........",
".......     ..........................     .......",
".......    ............................    .......",
"......     ............................     ......",
".....     ..............................     .....",
".....     ..............................     .....",
"....      ..............................      ....",
"....                                          ....",
"....                                          ....",
".....                                        .....",
"......                                      ......",
"..................................................",
"..................................................",
"..................................................",
"..................................................",
"..................................................",
"..................................................",
"..................................................",
".................................................."
};
