/* XPM */
static const char *b_Palette_xpm[] = {
/* width height ncolors chars_per_pixel */
" 24 16 4 1",
/* colors */
". c none",
"4 c #FFFF00",
"0 c #0000FF",
"1 c #FF0000",
/* pixels */
"........................",
"..44444...00000...11111.",
"..44444...00000...11111.",
"..44444...00000...11111.",
"..44444...00000...11111.",
"..44444...00000...11111.",
"..44444...00000...11111.",
"..44444...00000...11111.",
"..44444...00000...11111.",
"..44444...00000...11111.",
"..44444...00000...11111.",
"..44444...00000...11111.",
"..44444...00000...11111.",
"..44444...00000...11111.",
"..44444...00000...11111.",
"........................"
};
